<svg width="87" height="57" viewBox="0 0 87 57" fill="none" xmlns="http://www.w3.org/2000/svg">
<path d="M74.5456 17.875H70.0403C68.6782 17.875 67.6304 18.2917 67.0018 19.6458L58.4102 39.125H64.4872C64.4872 39.125 65.5349 36.5208 65.7445 35.8958C66.3731 35.8958 72.3453 35.8958 73.1835 35.8958C73.3931 36.625 73.917 39.0208 73.917 39.0208H79.3653L74.5456 17.875ZM67.4209 31.5208C67.9448 30.2708 69.7259 25.5833 69.7259 25.5833C69.7259 25.6875 70.2498 24.3333 70.4594 23.6042L70.8785 25.4792C70.8785 25.4792 72.031 30.5833 72.2406 31.625H67.4209V31.5208Z" fill="#3362AB"/>
<path d="M58.8293 32.1458C58.8293 36.5208 54.8478 39.4375 48.666 39.4375C46.0466 39.4375 43.532 38.9167 42.1699 38.2917L43.0081 33.5L43.7416 33.8125C45.6275 34.6458 46.8848 34.9583 49.1899 34.9583C50.8663 34.9583 52.6475 34.3333 52.6475 32.875C52.6475 31.9375 51.9141 31.3125 49.609 30.2708C47.4087 29.2292 44.475 27.5625 44.475 24.5417C44.475 20.375 48.5612 17.5625 54.3239 17.5625C56.5242 17.5625 58.4102 17.9792 59.5627 18.5L58.7245 23.0833L58.3054 22.6667C57.2576 22.25 55.8956 21.8333 53.9048 21.8333C51.7045 21.9375 50.6568 22.875 50.6568 23.7083C50.6568 24.6458 51.9141 25.375 53.9048 26.3125C57.2576 27.875 58.8293 29.6458 58.8293 32.1458Z" fill="#3362AB"/>
<path d="M7.69873 18.0832L7.80351 17.6665H16.8142C18.0715 17.6665 19.0145 18.0832 19.3288 19.4373L21.3196 28.8123C19.3288 23.8123 14.7187 19.7498 7.69873 18.0832Z" fill="#F9B50B"/>
<path d="M33.9975 17.8752L24.882 39.021H18.7002L13.4614 21.3127C17.2334 23.7085 20.3766 27.4585 21.5292 30.0627L22.1578 32.2502L27.8157 17.771H33.9975V17.8752Z" fill="#3362AB"/>
<path d="M36.4074 17.771H42.1701L38.5029 39.021H32.7402L36.4074 17.771Z" fill="#3362AB"/>
</svg>
